<?xml version="1.0" encoding="UTF-8" standalone="no"?>
<svg
   data-name="Layer 1"
   width="737.66564"
   height="594"
   viewBox="0 0 737.66564 594"
   version="1.1"
   id="svg42"
   sodipodi:docname="undraw_bookshelves_re_lxoy.svg"
   inkscape:version="1.3.2 (091e20e, 2023-11-25, custom)"
   xmlns:inkscape="http://www.inkscape.org/namespaces/inkscape"
   xmlns:sodipodi="http://sodipodi.sourceforge.net/DTD/sodipodi-0.dtd"
   xmlns="http://www.w3.org/2000/svg"
   xmlns:svg="http://www.w3.org/2000/svg">
  <defs
     id="defs42" />
  <sodipodi:namedview
     id="namedview42"
     pagecolor="#505050"
     bordercolor="#ffffff"
     borderopacity="1"
     inkscape:showpageshadow="0"
     inkscape:pageopacity="0"
     inkscape:pagecheckerboard="1"
     inkscape:deskcolor="#505050"
     inkscape:zoom="0.91256202"
     inkscape:cx="410.93097"
     inkscape:cy="322.71779"
     inkscape:window-width="1920"
     inkscape:window-height="991"
     inkscape:window-x="-9"
     inkscape:window-y="-9"
     inkscape:window-maximized="1"
     inkscape:current-layer="svg42" />
  <path
     d="M499.59339,603.57371a24.30012,24.30012,0,0,1,9.74324-30.08516c1.64736-1.00163.14149-3.59709-1.51416-2.59041A27.0077,27.0077,0,0,0,497.003,605.08787c.75686,1.76976,3.34195.24315,2.59041-1.51416Z"
     fill="#3f3d56"
     id="path1"
     transform="translate(-231.16718 -153)" />
  <path
     d="M500.45155,607.60854c-4.04629-7.16841-3.0941-15.747-1.63872-23.4989,1.51929-8.09231,3.51088-16.30868,1.78772-24.539a22.527,22.527,0,0,0-5.353-10.73372c-1.31056-1.42342-3.42784.70229-2.12132,2.12132,5.0888,5.527,5.67878,13.5448,4.85343,20.66543-.9735,8.39864-3.73258,16.58266-3.39006,25.117a27.20192,27.20192,0,0,0,3.27155,12.38207,1.50112,1.50112,0,0,0,2.59041-1.51416Z"
     fill="#3f3d56"
     id="path2"
     transform="translate(-231.16718 -153)" />
  <path
     d="M522.16718,630.5h-51a4.50508,4.50508,0,0,1-4.5-4.5V611.01953A14.53617,14.53617,0,0,1,481.187,596.5h7.48023a1.50164,1.50164,0,0,0,1.5-1.5v-7a2.50294,2.50294,0,0,1,2.5-2.5h8a2.50294,2.50294,0,0,1,2.5,2.5v7a1.50164,1.50164,0,0,0,1.5,1.5h7.48022a14.53618,14.53618,0,0,1,14.51978,14.51953V626A4.50508,4.50508,0,0,1,522.16718,630.5Z"
     fill="#ccc"
     id="path3"
     transform="translate(-231.16718 -153)" />
  <path
     d="M497.45105,540.53959c1.07377,5.69871-.25563,10.73293-2.9693,11.24425s-5.784-3.69389-6.85778-9.3926,2.22864-15.17508,2.22864-15.17508S496.37727,534.84088,497.45105,540.53959Z"
     fill="#e22323"
     id="path4"
     style="fill:#008000"
     transform="translate(-231.16718 -153)" />
  <path
     d="M518.0446,567.052c-3.40041,4.69739-7.97031,7.19273-10.20717,5.57349s-1.2936-6.73989,2.10681-11.43729,12.55268-8.81363,12.55268-8.81363S521.445,562.35458,518.0446,567.052Z"
     fill="#e22323"
     id="path5"
     style="fill:#008000"
     transform="translate(-231.16718 -153)" />
  <path
     d="M405.59339,243.57371a24.30012,24.30012,0,0,1,9.74324-30.08516c1.64736-1.00163.14149-3.59709-1.51416-2.59041A27.0077,27.0077,0,0,0,403.003,245.08787c.75686,1.76976,3.34195.24315,2.59041-1.51416Z"
     fill="#3f3d56"
     id="path6"
     transform="translate(-231.16718 -153)" />
  <path
     d="M406.45155,247.60854c-4.04629-7.16841-3.0941-15.747-1.63872-23.4989,1.51929-8.09231,3.51088-16.30868,1.78772-24.539a22.527,22.527,0,0,0-5.353-10.73372c-1.31056-1.42342-3.42784.70229-2.12132,2.12132,5.0888,5.527,5.67878,13.5448,4.85343,20.66543-.9735,8.39864-3.73258,16.58266-3.39006,25.117a27.20192,27.20192,0,0,0,3.27155,12.38207,1.50112,1.50112,0,0,0,2.59041-1.51416Z"
     fill="#3f3d56"
     id="path7"
     transform="translate(-231.16718 -153)" />
  <path
     d="M428.16718,270.5h-51a4.505,4.505,0,0,1-4.5-4.5V251.01953A14.53623,14.53623,0,0,1,387.18683,236.5h7.48035a1.50164,1.50164,0,0,0,1.5-1.5v-7a2.50286,2.50286,0,0,1,2.5-2.5h8a2.50286,2.50286,0,0,1,2.5,2.5v7a1.50164,1.50164,0,0,0,1.5,1.5h7.48035a14.53623,14.53623,0,0,1,14.51965,14.51953V266A4.505,4.505,0,0,1,428.16718,270.5Z"
     fill="#ccc"
     id="path8"
     transform="translate(-231.16718 -153)" />
  <path
     d="M403.45105,180.53959c1.07377,5.69871-.25563,10.73293-2.9693,11.24425s-5.784-3.69389-6.85778-9.3926,2.22864-15.17508,2.22864-15.17508S402.37727,174.84088,403.45105,180.53959Z"
     fill="#e22323"
     id="path9"
     style="fill:#008000"
     transform="translate(-231.16718 -153)" />
  <path
     d="M424.0446,207.052c-3.40041,4.69739-7.97031,7.19273-10.20717,5.57349s-1.2936-6.73989,2.10681-11.43729,12.55268-8.81363,12.55268-8.81363S427.445,202.35458,424.0446,207.052Z"
     fill="#e22323"
     id="path10"
     style="fill:#008000"
     transform="translate(-231.16718 -153)" />
  <rect
     x="32"
     y="272"
     width="41"
     height="15"
     fill="#e22323"
     id="rect10" />
  <rect
     x="32"
     y="321"
     width="41"
     height="15"
     fill="#e22323"
     id="rect11"
     style="fill:#0000c2;fill-opacity:1" />
  <path
     d="M554.16718,746h-306a17.01909,17.01909,0,0,1-17-17V170a17.01909,17.01909,0,0,1,17-17h306a17.01917,17.01917,0,0,1,17,17V729A17.01917,17.01917,0,0,1,554.16718,746Zm-306-591a15.017,15.017,0,0,0-15,15V729a15.017,15.017,0,0,0,15,15h306a15.017,15.017,0,0,0,15-15V170a15.017,15.017,0,0,0-15-15Z"
     fill="#3f3d56"
     id="path11"
     transform="translate(-231.16718 -153)" />
  <rect
     x="1"
     y="115.45264"
     width="338"
     height="2"
     fill="#3f3d56"
     id="rect12" />
  <rect
     x="1"
     y="235.48438"
     width="338"
     height="2"
     fill="#3f3d56"
     id="rect13" />
  <rect
     x="1"
     y="355.51563"
     width="338"
     height="2"
     fill="#3f3d56"
     id="rect14" />
  <rect
     x="1"
     y="475.54736"
     width="338"
     height="2"
     fill="#3f3d56"
     id="rect15" />
  <path
     d="M301.16718,511h-34a5.0058,5.0058,0,0,1-5-5V409a5.0058,5.0058,0,0,1,5-5h34a5.0058,5.0058,0,0,1,5,5v97A5.0058,5.0058,0,0,1,301.16718,511Zm-34-105a3.00335,3.00335,0,0,0-3,3v97a3.00335,3.00335,0,0,0,3,3h34a3.00336,3.00336,0,0,0,3-3V409a3.00336,3.00336,0,0,0-3-3Z"
     fill="#3f3d56"
     id="path15"
     transform="translate(-231.16718 -153)" />
  <rect
     x="95"
     y="272"
     width="41"
     height="15"
     fill="#e22323"
     id="rect16" />
  <rect
     x="95"
     y="321"
     width="41"
     height="15"
     fill="#e22323"
     id="rect17"
     style="fill:#0000c2;fill-opacity:1" />
  <path
     d="M364.16718,511h-34a5.0058,5.0058,0,0,1-5-5V409a5.0058,5.0058,0,0,1,5-5h34a5.0058,5.0058,0,0,1,5,5v97A5.0058,5.0058,0,0,1,364.16718,511Zm-34-105a3.00335,3.00335,0,0,0-3,3v97a3.00335,3.00335,0,0,0,3,3h34a3.00336,3.00336,0,0,0,3-3V409a3.00336,3.00336,0,0,0-3-3Z"
     fill="#3f3d56"
     id="path17"
     transform="translate(-231.16718 -153)" />
  <rect
     x="195"
     y="151"
     width="41"
     height="15"
     fill="#e22323"
     id="rect18" />
  <rect
     x="195"
     y="200"
     width="41"
     height="15"
     fill="#e22323"
     id="rect19"
     style="fill:#0000c2;fill-opacity:1" />
  <path
     d="M464.16718,390h-34a5.0058,5.0058,0,0,1-5-5V288a5.0058,5.0058,0,0,1,5-5h34a5.00573,5.00573,0,0,1,5,5v97A5.00573,5.00573,0,0,1,464.16718,390Zm-34-105a3.00335,3.00335,0,0,0-3,3v97a3.00335,3.00335,0,0,0,3,3h34a3.00328,3.00328,0,0,0,3-3V288a3.00328,3.00328,0,0,0-3-3Z"
     fill="#3f3d56"
     id="path19"
     transform="translate(-231.16718 -153)" />
  <rect
     x="258"
     y="151"
     width="41"
     height="15"
     fill="#e22323"
     id="rect20" />
  <rect
     x="258"
     y="200"
     width="41"
     height="15"
     fill="#e22323"
     id="rect21"
     style="fill:#0000c2;fill-opacity:1" />
  <path
     d="M527.16718,390h-34a5.00573,5.00573,0,0,1-5-5V288a5.00573,5.00573,0,0,1,5-5h34a5.00573,5.00573,0,0,1,5,5v97A5.00573,5.00573,0,0,1,527.16718,390Zm-34-105a3.00328,3.00328,0,0,0-3,3v97a3.00328,3.00328,0,0,0,3,3h34a3.00328,3.00328,0,0,0,3-3V288a3.00328,3.00328,0,0,0-3-3Z"
     fill="#3f3d56"
     id="path21"
     transform="translate(-231.16718 -153)" />
  <rect
     x="380.40526"
     y="422.77357"
     width="41"
     height="15"
     transform="translate(-356.89697 15.51816) rotate(-20.59468)"
     fill="#e22323"
     id="rect22" />
  <rect
     x="397.64125"
     y="468.64209"
     width="41"
     height="15"
     transform="translate(-371.92993 24.51236) rotate(-20.59468)"
     fill="#e22323"
     id="rect23"
     style="fill:#0000c2;fill-opacity:1" />
  <path
     d="M411.3111,509.88281a5.009,5.009,0,0,1-4.67786-3.24414L372.513,415.83789a5.00607,5.00607,0,0,1,2.92151-6.439l31.82739-11.95948a4.99925,4.99925,0,0,1,6.43921,2.92188l34.12024,90.80078a5.00606,5.00606,0,0,1-2.92151,6.439h-.00012l-31.82727,11.95948A4.99586,4.99586,0,0,1,411.3111,509.88281Zm-2.2887-110.76465a3.00572,3.00572,0,0,0-1.057.19336L376.13825,411.271a3.00388,3.00388,0,0,0-1.75305,3.86377l34.12024,90.80078a2.99969,2.99969,0,0,0,3.86352,1.75293L444.19611,495.729a3.00388,3.00388,0,0,0,1.75305-3.86377l-34.12024-90.80078a3.00565,3.00565,0,0,0-2.80652-1.94629Z"
     fill="#3f3d56"
     id="path23"
     transform="translate(-231.16718 -153)" />
  <rect
     x="242.40526"
     y="303.77357"
     width="41"
     height="15"
     transform="translate(-323.85743 -40.62902) rotate(-20.59468)"
     fill="#e22323"
     id="rect24" />
  <rect
     x="259.64125"
     y="349.64209"
     width="41"
     height="15"
     transform="translate(-338.89039 -31.63483) rotate(-20.59468)"
     fill="#e22323"
     id="rect25"
     style="fill:#0000c2;fill-opacity:1" />
  <path
     d="M273.3111,390.88281a5.009,5.009,0,0,1-4.67786-3.24414L234.513,296.83789a5.00607,5.00607,0,0,1,2.92151-6.439l31.82739-11.95948a4.99925,4.99925,0,0,1,6.43921,2.92188l34.12024,90.80078a5.00606,5.00606,0,0,1-2.92151,6.439h-.00012l-31.82727,11.95948A4.99586,4.99586,0,0,1,273.3111,390.88281Zm-2.2887-110.76465a3.00572,3.00572,0,0,0-1.057.19336L238.13825,292.271a3.00388,3.00388,0,0,0-1.75305,3.86377l34.12024,90.80078a2.99969,2.99969,0,0,0,3.86352,1.75293L306.19611,376.729a3.00388,3.00388,0,0,0,1.75305-3.86377l-34.12024-90.80078a3.00565,3.00565,0,0,0-2.80652-1.94629Z"
     fill="#3f3d56"
     id="path25"
     transform="translate(-231.16718 -153)" />
  <circle
     cx="562.34686"
     cy="219"
     r="31"
     fill="#2f2e41"
     id="circle25" />
  <path
     d="m 424.62719,360.47105 a 10.74273,10.74273 0 0 0 14.42391,-7.956 l 85.23707,-53.77848 -15.51422,-17.467 -78.94343,58.39088 a 10.80091,10.80091 0 0 0 -5.20333,20.81064 z"
     fill="#ffb8b8"
     id="path26" />
  <path
     d="m 506.4931,313.03418 a 4.50412,4.50412 0 0 1 -3.79321,-2.06348 l -9.87061,-15.33886 a 4.5006,4.5006 0 0 1 1.14819,-6.082 l 33.03,-23.873 a 14.78876,14.78876 0 1 1 16.62964,24.44531 l -34.72925,22.20508 a 4.46628,4.46628 0 0 1 -2.41476,0.70695 z"
     fill="#2f2e41"
     id="path27"
     style="fill:#000080;fill-opacity:1" />
  <polygon
     points="573.635,580.849 567.802,533.561 585.897,533.562 585.894,580.85 "
     fill="#ffb8b8"
     id="polygon27"
     transform="translate(-64.65314)" />
  <path
     d="m 500.22426,577.34625 h 23.64387 v 14.88687 H 485.3374 v 0 a 14.88686,14.88686 0 0 1 14.88686,-14.88687 z"
     fill="#2f2e41"
     id="path28" />
  <polygon
     points="631.324,574.998 612.926,531.047 630.347,526.156 643.128,571.684 "
     fill="#ffb8b8"
     id="polygon28"
     transform="translate(-64.65314)" />
  <path
     d="m 557.29339,573.99182 22.76395,-6.39024 4.02348,14.33284 -37.09678,10.41373 v 0 a 14.88686,14.88686 0 0 1 10.30935,-18.35633 z"
     fill="#2f2e41"
     id="path29" />
  <path
     d="m 611.50677,499.11328 -47.596,-56.1709 28.88135,-35.04394 a 4.49962,4.49962 0 0 1 6.96118,0.0205 l 43.70166,53.63378 z"
     fill="#e22323"
     id="path30" />
  <path
     d="m 565.83108,443.36047 v 0 a 15.94248,15.94248 0 0 1 2.58625,-3.45319 l 27.56723,-27.94751 a 6.13368,6.13368 0 0 1 4.0758,-1.83 c 3.14992,-0.14873 8.31574,0.16954 9.75565,3.62537 l -37.218,30.45111 z"
     fill="#f2f2f2"
     id="path31" />
  <path
     d="m 613.16082,510.999 a 11.4306,11.4306 0 0 1 -5.95776,-1.88672 l -0.13159,-0.13574 -43.59155,-66.66894 7.23339,-0.69922 38.76661,-30.23828 a 4.50045,4.50045 0 0 1 6.52221,1.06738 l 42.37622,64.1377 a 4.51307,4.51307 0 0 1 -1.238,6.21093 l -41.00611,27.65039 a 7.94866,7.94866 0 0 1 -2.97342,0.5625 z"
     fill="#e22323"
     id="path32" />
  <path
     d="m 597.74359,465.39355 a 2.49929,2.49929 0 0 1 -2.0774,-1.10253 l -5.00781,-7.43848 a 2.50383,2.50383 0 0 1 0.67774,-3.4707 l 25.69116,-17.2959 a 2.505,2.505 0 0 1 3.47021,0.67773 l 5.00757,7.43848 a 2.50383,2.50383 0 0 1 -0.67773,3.4707 l -25.69116,17.2959 a 2.49073,2.49073 0 0 1 -1.39258,0.4248 z"
     fill="#3f3d56"
     id="path33"
     style="fill:#ffffff" />
  <path
     d="m 501.20916,573.69824 a 5.47917,5.47917 0 0 1 -5.43872,-5.0039 c -2.18188,-24.78516 -13.12671,-149.7002 -14.32812,-174.92676 -1.33448,-28.0293 21.99267,-72.3711 22.22851,-72.81543 l 0.16138,-0.30469 11.52979,1.44043 v 1.34082 l 10.97436,1.291 21.23828,2.05566 6.08032,74.31836 2.68848,50.40234 25.25924,102.94338 a 4.476,4.476 0 0 1 -3.18628,5.41407 l -21.9834,5.99511 a 4.51906,4.51906 0 0 1 -5.51221,-3.10937 l -20.69751,-72.707 a 1.5,1.5 0 0 0 -2.94189,0.457 l 2.189,70.89551 a 5.34339,5.34339 0 0 1 -1.61718,3.91211 c -5.03907,4.73242 -18.35352,7.25878 -25.84131,8.34375 a 5.5788,5.5788 0 0 1 -0.80274,0.0576 z"
     fill="#2f2e41"
     id="path34"
     style="fill:#000000;fill-opacity:1" />
  <path
     d="m 567.26532,261.39249 c -3.48829,-3.63648 -26.47315,1.36093 -31.57618,6.71838 l -34.93575,57.10624 57.77809,10.74941 12.76493,-72.55852 z"
     fill="#e22323"
     id="path35"
     style="fill:#b3b3b3" />
  <path
     d="m 552.12127,406.47949 a 11.248,11.248 0 0 1 -3.65747,-0.60937 c -3.35669,-1.15137 -7.4707,-2.35645 -12.22754,-3.5791 -20.83374,-5.35743 -28.18945,-22.50977 -21.8623,-50.98047 l 0.15991,-0.72266 a 210.7341,210.7341 0 0 1 32.95681,-75.26269 l 2.45,-3.51954 A 26.398,26.398 0 0 1 576.9856,261.0498 c 9.37427,1.9336 14.40747,4.73536 14.96021,8.32813 1.08471,7.0498 -19.854,92.26953 -28.90674,128.582 a 11.23544,11.23544 0 0 1 -10.91773,8.51953 z"
     fill="#2f2e41"
     id="path36"
     style="fill:#000080;fill-opacity:1" />
  <path
     d="m 480.35076,395.53906 a 5.283,5.283 0 0 1 -1.60522,-0.25 l -6.75269,-2.16015 a 5.26875,5.26875 0 0 1 -3.24047,-7.082 l 35.8313,-84.10355 a 78.69258,78.69258 0 0 1 34.12354,-37.82715 h 2.4e-4 a 1.84145,1.84145 0 0 1 1.46143,-0.13672 1.6571,1.6571 0 0 1 1.00488,0.8916 c 4.21411,9.27051 -18.72241,53.14356 -37.15234,88.39551 -9.43726,18.05078 -17.5874,33.64063 -18.51514,38.08594 a 5.26334,5.26334 0 0 1 -5.15552,4.18652 z"
     fill="#2f2e41"
     id="path37"
     style="fill:#000080;fill-opacity:1" />
  <path
     d="m 591.20568,414.70345 a 10.74266,10.74266 0 0 0 0.92142,-16.44683 l -0.28478,-100.78395 -23.04006,3.86569 7.53584,97.90185 a 10.8009,10.8009 0 0 0 14.86758,15.46324 z"
     fill="#ffb8b8"
     id="path38" />
  <path
     d="m 572.44598,322.47656 a 4.49932,4.49932 0 0 1 -4.48853,-4.20312 l -2.68017,-40.666 a 14.80742,14.80742 0 0 1 13.7844,-15.73044 14.78957,14.78957 0 0 1 15.761,14.626 l 0.364,41.21973 a 4.50852,4.50852 0 0 1 -4.44678,4.54 l -18.23925,0.21386 z"
     fill="#2f2e41"
     id="path39"
     style="fill:#000080;fill-opacity:1" />
  <circle
     cx="555.96106"
     cy="227.01575"
     r="24.561029"
     fill="#ffb8b8"
     id="circle39" />
  <path
     d="m 576.38248,244.202 c 1.83183,-5.82965 3.51355,-12.70329 -0.11157,-17.62253 -2.61207,-3.54455 -7.30192,-4.91657 -11.70057,-5.113 -4.39865,-0.19643 -8.80988,0.54917 -13.19907,0.20024 -4.38919,-0.34893 -9.028,-2.08127 -11.25764,-5.878 -2.89119,-4.92317 -0.44247,-11.70412 4.20553,-15.01964 4.648,-3.31552 10.78836,-3.77847 16.44523,-3.0062 a 35.47655,35.47655 0 0 1 19.29228,8.62983 c 5.2582,4.85294 8.68542,11.84811 8.53273,19.00188 -0.15269,7.15377 -4.1649,14.27774 -10.5589,17.48967"
     fill="#2f2e41"
     id="path40" />
  <path
     d="m 570.25849,190.53408 c -5.87973,-1.81115 -8.59177,-9.58474 -5.96235,-15.14691 2.62942,-5.56217 9.35073,-8.4748 15.45411,-7.70005 6.10338,0.77475 11.48144,4.69043 15.191,9.59865 3.70956,4.90822 5.9468,10.759 7.81178,16.62189 1.86498,5.86289 3.416,11.85261 5.96329,17.45286 a 54.16842,54.16842 0 0 0 44.45006,30.94259 c 4.129,0.29914 8.41394,0.0848 12.17689,-1.64105 3.76295,-1.72587 6.9186,-5.20542 7.34024,-9.32376 2.14172,14.629 -6.36878,30.17609 -19.84618,36.25519 -13.4774,6.0791 -30.76454,2.16827 -40.313,-9.11989 -9.33112,-11.03123 -10.77627,-26.60551 -10.55183,-41.05222 0.0616,-3.96158 0.20762,-7.998 -0.88686,-11.80587 -1.09448,-3.80787 -3.68466,-7.4286 -7.45762,-8.638 -3.04412,-0.97577 -6.34107,-0.27238 -9.462,0.41942 -3.12093,0.6918 -6.43481,1.35765 -9.4566,0.31479 -3.02179,-1.04286 -5.45494,-4.4792 -4.23735,-7.43492"
     fill="#2f2e41"
     id="path41" />
  <path
     d="m 667.42954,594 h -264 a 1,1 0 1 1 0,-2 h 264 a 1,1 0 0 1 0,2 z"
     fill="#cccccc"
     id="path42" />
</svg>
